<svg xmlns="http://www.w3.org/2000/svg" width="3.878in" height="3.967in" viewBox="0 0 279.201 285.6">
  <title>logo</title>
  <path d="M172.4,0H108L0,285.6H63.2L85.6,222H192.4L214,285.6h65.2Zm26.971,143.632-0.153.282-18.129,33.3-21.024-11.277,0.037,25.1H119.154V165.931L98.12,177.213l-18.306-33.58,20.221-11.576L79.6,119.662,99.792,86.985l19.891,11.187V74.558L159.627,74.6,159.612,98.14l19.793-11.159,20.2,32.682-20.446,12.4Z" style="fill: #fff"/>
  <g>
    <path d="M143.044,146.04c-0.25,2.78-.616,6.157-2.462,8.211-2.969,3.173-4.917,6.068-4.078,10.74,2.232,11.7,1.982,3.614,1.982,3.261-0.872-9.181,3.084-8.808,6.54-14.978,1.109-1.8.487-4.943-1.238-6.76l-0.744-.475h0Z" style="fill: #fff;fill-rule: evenodd"/>
    <path d="M136.876,100.361l1.238,27.772c0.122,1.681,4.815-4.353,4.815-5.913L143.4,99.679s-0.056-.417-0.166-0.192c-1.072,2.187-6.353.444-6.353,0.874h0Z" style="fill: #fff;fill-rule: evenodd"/>
    <path d="M141.32,96.076c0.352,0.424,1.189.792,1.654,1.222a0.2,0.2,0,0,0,.327-0.027V88.218c0-3.98-6.175-4.455-6.425-.115v5.8c0,0.956,2.462-.725,4.443,2.17h0Z" style="fill: #fff;fill-rule: evenodd"/>
    <path d="M142.178,171.046c0.332,6.136-1.711,6.17-2.841,8.089-0.365.59,4.931-2.42,3.963-6.76-0.135-.488-1.123-2.068-1.123-1.329h0Z" style="fill: #fff;fill-rule: evenodd"/>
    <path d="M142.077,148.081l0.23-14.734c0-.956-3.686,3.146-3.686,5.194l0.237,16.429c0,1.078,3.084-3.139,3.219-6.889h0Z" style="fill: #fff;fill-rule: evenodd"/>
    <path d="M141.57,174.525l0.372-15.8c0-.488-2.719,3.383-2.719,3.987l0.712,14.7s0.066,0.135.1,0.074c0.378-.607,1.427-1.516,1.532-2.953h0Z" style="fill: #fff;fill-rule: evenodd"/>
    <path d="M140.21,179.623l0.257,3.126h0.365l0.487-4.339a5.181,5.181,0,0,0-1.109,1.214h0Z" style="fill: #fff;fill-rule: evenodd"/>
    <path d="M143.179,98.727c0.622-.841-1.474-1.444-2.232-2.42-2.834-3.851-7.764.373-9.6,2.658-2.841,3.478-2.151,7.8-1.042,10.781a30.627,30.627,0,0,0,4.308,6.956c0.636,0.692,2.651,2.794,2.651,2.068-0.135-1.932-.25-5.682-0.5-6.034-3.943-6.285-2.1-13.886-.122-13.283,1.474,0.488,5.62,1.261,6.222-.1l0.067-.135s-2.634-.539-2.634-0.776S142.392,99.108,143.179,98.727Zm-4.422-2.336a0.409,0.409,0,0,1-.438-0.335c0-.2.249-0.235,0.452-0.235a0.7,0.7,0,0,1,.644.375C139.415,96.393,138.954,96.391,138.758,96.391Z" style="fill: #fff;fill-rule: evenodd"/>
    <path d="M143.788,115.576l-0.122,6.645c0,3.262-8.015,9.059-9.259,14.252a10.037,10.037,0,0,0,.737,6.509c0.257,0.6,2.1,4.238,2.969,4.1a39.7,39.7,0,0,0-.25-6.638c-0.988-5.906,7.649-9.886,10-15.69,1.474-3.729.2-6.306-4.072-9.181h0Z" style="fill: #fff;fill-rule: evenodd"/>
  </g>
</svg>
